HIERARCHY
ROOT Hips
{
  OFFSET -190.439 83.9362 371.868
  CHANNELS 6 Xposition Yposition Zposition Zrotation Xrotation Yrotation
  JOINT RightUpLeg
  {
    OFFSET -8.9458 -8.66707 0.101652
    CHANNELS 3 Zrotation Xrotation Yrotation
    JOINT RightLeg
    {
      OFFSET 0 -44.4227 1.3727
      CHANNELS 3 Zrotation Xrotation Yrotation
      JOINT RightFoot
      {
        OFFSET 0.253549 -42.0924 -1.46059
        CHANNELS 3 Zrotation Xrotation Yrotation
        JOINT RightToes
        {
          OFFSET 0.04 -4.41509 8.4991
          CHANNELS 3 Zrotation Xrotation Yrotation
          End Site
          {
            OFFSET -0.08 -0.137448 9.77979
          }
        }
      }
    }
  }
  JOINT Spine
  {
    OFFSET 0 11.8905 0
    CHANNELS 3 Zrotation Xrotation Yrotation
    JOINT Spine1
    {
      OFFSET 0 25.6574 0.127663
      CHANNELS 3 Zrotation Xrotation Yrotation
      JOINT HEad
      {
        OFFSET 0 8.73416 0.011341
        CHANNELS 3 Zrotation Xrotation Yrotation
        End Site
        {
          OFFSET -0.29 12.7742 2.51395
        }
      }
      JOINT LeftShoulder1
      {
        OFFSET 8.99 -0.362252 -0.22
        CHANNELS 3 Zrotation Xrotation Yrotation
        JOINT LeftArm
        {
          OFFSET 10.2827 -0.00338 0.322123
          CHANNELS 3 Zrotation Xrotation Yrotation
          JOINT LeftForeArm
          {
            OFFSET 32.7669 0.099144 -1.42434
            CHANNELS 3 Zrotation Xrotation Yrotation
            JOINT LeftHand
            {
              OFFSET 27.5643 0.085362 1.02216
              CHANNELS 3 Zrotation Xrotation Yrotation
              End Site
              {
                OFFSET 16.7443 -0.6 1.50291
              }
            }
          }
        }
      }
      JOINT RightShoulder
      {
        OFFSET -8.99 -0.362252 -0.22
        CHANNELS 3 Zrotation Xrotation Yrotation
        JOINT RightArm
        {
          OFFSET -10.2827 -0.00338 0.322123
          CHANNELS 3 Zrotation Xrotation Yrotation
          JOINT RightForeArm
          {
            OFFSET -32.8971 0.099144 -1.42434
            CHANNELS 3 Zrotation Xrotation Yrotation
            JOINT RightHand
            {
              OFFSET -27.4921 0.085362 1.02216
              CHANNELS 3 Zrotation Xrotation Yrotation
              End Site
              {
                OFFSET -16.6312 -0.6 1.50291
              }
            }
          }
        }
      }
    }
  }
  JOINT LeftUpLeg
  {
    OFFSET 8.9458 -8.66707 0.101652
    CHANNELS 3 Zrotation Xrotation Yrotation
    JOINT LeftLeg
    {
      OFFSET 0 -44.4227 1.3727
      CHANNELS 3 Zrotation Xrotation Yrotation
      JOINT LeftFoot
      {
        OFFSET -0.253549 -42.0924 -1.46059
        CHANNELS 3 Zrotation Xrotation Yrotation
        JOINT LeftToes
        {
          OFFSET -0.04 -4.41509 8.4991
          CHANNELS 3 Zrotation Xrotation Yrotation
          End Site
          {
            OFFSET 0.08 -0.047448 9.77979
          }
        }
      }
    }
  }
}
MOTION
Frames:	21
Frame Time:	0.0166667
-219.743 97.7367 380.811 14.8217 32.7263 101.059 -47.8347 5.83701 6.23627 41.8399 10.5148 -31.8689 -30.5315 -2.0832 -1.65681 0.0462048 0.000533403 0.662642 -38.5224 29.779 1.40771 0.0233689 0.02617 -0.0462606 -11.7276 5.50888 14.0557 -3.18055e-015 -3.97569e-016 -1.59028e-015 -121.126 -46.4696 -111.24 -43.651 46.8498 -50.4749 17.6276 25.9971 -1.11625 10.0767 11.233 -8.08376 89.7432 18.3594 83.7301 -0.30318 45.3039 95.8241 29.8526 14.2607 9.66718 -7.90243 -23.1541 -28.758 -55.925 27.9143 119.476 -19.7672 0.268117 -0.539853 2.01517e-008 1.56022e-007 -4.87131e-009 
-217.922 96.7083 380.972 18.5647 35.7355 97.6714 -50.6184 4.78949 11.2578 44.0235 15.3252 -36.8413 -30.506 -5.73396 -1.96214 0.0462048 0.000533403 0.662642 -42.533 29.1471 7.97864 0.017089 0.02778 -0.0421104 -12.6385 8.36766 12.3607 -1.59028e-015 -1.98785e-016 -0 -106.404 -46.0858 -97.9268 -31.2068 37.4688 -53.0335 15.3506 20.5236 -20.7328 11.0737 12.5337 -10.6614 88.9654 20.2481 82.3981 2.00673 46.0901 92.7801 22.7341 14.8843 8.15638 -10.3085 -22.7089 -19.5584 -51.058 38.4513 106.993 -30.6976 0.452208 -0.346637 2.01517e-008 1.56022e-007 -4.8713e-009 
-216.058 95.7079 381.045 24.5125 37.7727 91.7251 -52.7231 3.91191 17.9824 46.7774 20.153 -42.1642 -30.3075 -9.57665 -2.08752 0.0462048 0.000533403 0.662642 -45.7436 28.8326 15.4231 0.0104691 0.03031 -0.0379303 -13.9732 11.0774 11.2396 -1.59028e-015 3.97569e-016 1.59028e-015 -90.6842 -43.8292 -83.4105 -20.6345 24.8765 -53.6212 10.3287 21.6606 -1.73066 11.4453 13.7506 -12.5215 88.5107 21.5751 80.9818 3.21812 46.7557 90.9584 26.4339 18.9418 6.62313 -10.207 -21.4534 -8.36634 -40.8545 48.2571 90.512 -45.8856 0.631259 0.0912709 2.01517e-008 1.56022e-007 -4.87131e-009 
-214.37 95.0988 381.137 32.3233 38.4232 83.8114 -53.5741 3.78285 25.9783 48.7445 24.1996 -46.9196 -29.8871 -12.6765 -2.13267 0.0462048 0.000533403 0.662642 -47.9258 30.004 22.3397 0.0550476 0.0928099 -0.102591 -16.5575 12.516 11.3995 7.95139e-016 -1.59028e-015 -1.59028e-015 -77.1781 -40.2407 -69.7031 -12.7249 9.75279 -52.0666 5.20497 15.8993 -28.8681 10.1728 14.3404 -12.4688 88.3369 22.5033 79.5268 3.75836 47.3661 89.7577 22.3233 18.627 5.89936 -7.31042 -21.6398 4.78183 -26.4813 53.1846 70.7382 -35.4247 2.46378 0.630673 2.01517e-008 1.56022e-007 -4.87131e-009 
-212.757 94.4031 381.122 39.1098 38.3325 76.965 -54.5271 3.53401 32.9786 51.3351 27.3666 -51.527 -26.9673 -15.7545 -1.59374 0.0462048 0.000533403 0.662642 -49.2273 32.0171 26.4986 0.0376978 0.0929199 -0.0963109 -19.9545 12.8713 12.5942 1.93108e-032 -6.95746e-016 1.59028e-015 -66.3902 -35.4408 -56.8956 -7.27201 -6.54915 -48.7435 2.32787 20.072 -7.03732 8.00937 14.3647 -10.7629 88.1648 23.0899 77.9087 3.81143 48.0699 88.9308 24.3593 20.56 5.25824 -2.63546 -20.9731 16.8687 -11.5154 52.124 50.4884 -35.5333 1.88205 1.28739 2.01517e-008 1.56022e-007 -4.87131e-009 
-211.015 93.5604 380.905 44.8437 37.7112 71.2137 -55.2961 3.44188 39.0196 54.1274 30.0747 -55.9435 -24.1104 -18.5502 -0.85205 0.0462048 0.000533403 0.662642 -49.3459 34.6266 28.0397 0.0538481 0.0651899 -0.0804113 -24.3193 12.4109 14.6709 4.96962e-017 0 -0 -58.2052 -30.5692 -44.4348 -6.40709 -20.3274 -49.7034 -1.33842 15.2408 -28.8881 5.14835 13.6496 -7.54424 87.8829 23.3155 75.9761 3.70257 48.6692 88.1811 20.9862 20.7069 5.88115 3.76049 -19.629 27.4845 -1.36249 46.9091 35.3848 -35.5905 1.92404 1.95008 2.01517e-008 1.56022e-007 -4.87131e-009 
-209.031 92.5906 380.455 49.5699 36.6937 66.4671 -55.8676 3.44544 44.1838 57.0374 32.0428 -60.3775 -23.2467 -21.3182 -0.372534 0.0462048 0.000533403 0.662642 -48.7965 36.7612 28.5957 -0.0186598 0.0122 0.00927045 -26.9041 12.2144 15.534 7.95139e-016 0 1.59028e-015 -54.8168 -26.774 -36.4953 -6.76168 -28.9823 -51.1393 0.130869 18.6324 -19.279 9.95412 5.5659 -0.248752 83.3955 18.8767 66.3882 3.86495 49.0958 87.142 21.5102 22.3381 6.42922 11.0827 -17.387 36.0018 2.7082 39.2693 25.9586 -32.9005 2.26752 2.30085 2.01517e-008 1.56022e-007 -4.8713e-009 
-206.635 91.5463 379.631 53.3769 35.3887 62.5808 -57.4469 3.72119 48.0466 59.8993 33.8164 -63.18 -22.4502 -23.8549 0.133133 0.0462048 0.000533403 0.662642 -45.7894 38.5191 27.0113 0.0780498 -0.0316401 -0.00660188 -29.4149 12.2117 16.2926 -8.27607e-033 2.98177e-016 1.59028e-015 -54.9117 -24.7943 -30.1435 -7.55606 -34.0913 -52.8721 14.2882 18.4119 -48.1306 15.5342 -0.585877 6.71954 81.1457 17.5159 58.7445 5.5878 49.8692 86.0447 7.6032 23.4198 22.3228 18.402 -13.9492 42.007 3.06294 30.1815 20.0251 -31.4754 2.67236 2.85296 2.01517e-008 1.56022e-007 -4.8713e-009 
-203.712 90.4649 378.325 56.3966 33.9053 59.3827 -60.1782 4.31733 51.1291 62.2886 35.1875 -64.0958 -21.714 -26.1517 0.539242 0.0462048 0.000533403 0.662642 -40.4553 39.6043 23.7768 0.0767205 -0.0405501 0.0216982 -31.4855 12.5566 16.8285 -0 -9.93923e-017 -0 -55.6908 -27.9825 -24.6363 -8.69677 -35.5203 -56.4958 1.50242 23.8265 -29.4537 12.2693 1.56824 9.07427 85.5414 19.6311 61.0209 7.97007 50.9493 84.9319 19.299 22.2433 2.15168 24.9585 -9.60003 45.5688 2.04838 19.7002 15.7594 -31.0626 3.7994 3.54229 2.01517e-008 1.56022e-007 -4.8713e-009 
-200.424 89.1904 376.717 58.7085 32.3279 56.8151 -63.9246 5.08744 53.5938 63.9707 36.1741 -63.0993 -21.1103 -28.1804 0.752465 0.0462048 0.000533403 0.662642 -33.2036 39.8084 19.3296 0.0619808 -0.0372501 0.0346385 -33.0998 13.3076 17.1173 3.18055e-015 -1.49089e-016 -1.49089e-016 -56.6383 -34.3149 -18.4462 -11.3493 -32.0005 -57.7776 5.22145 20.4161 -35.736 7.99477 4.36053 11.0525 88.2875 20.7072 61.7189 9.66913 51.8185 83.4061 17.372 21.5119 6.48028 30.1924 -4.92943 46.8993 0.0539363 10.3434 12.1716 -32.2514 5.68557 4.51132 2.01517e-008 1.56022e-007 -4.87131e-009 
-197.063 87.5414 375.152 60.3243 30.6943 54.8875 -67.1509 5.68017 55.6739 65.5112 37.0207 -62.1803 -20.7466 -30.0942 0.879438 0.0462048 0.000533403 0.662642 -26.2924 39.332 15.0661 -0.044246 0.0275801 0.0390905 -32.7891 13.7896 16.668 -3.18055e-015 3.57812e-015 3.97569e-016 -57.1462 -38.4744 -12.15 -13.1447 -29.0296 -58.2741 -2.33315 22.3982 -24.7959 3.77361 7.08437 12.7031 90.1635 21.3443 61.7515 10.9768 52.5131 81.5978 22.7112 20.2572 -2.65233 34.1498 -0.106183 46.3441 -2.80477 0.397539 8.12366 -28.7848 9.02565 5.55331 2.01517e-008 1.56022e-007 -4.87131e-009 
-193.628 85.5634 373.48 61.2867 29.0715 53.5956 -69.9807 6.08478 57.4005 67.0657 37.739 -61.3682 -20.5086 -31.8871 0.970929 0.0462048 0.000533403 0.662642 -20.0273 38.2365 11.2028 -0.0526725 0.0359601 0.0405042 -32.3219 14.517 16.329 6.36111e-015 1.19271e-015 -1.59028e-015 -57.3642 -40.9941 -5.78496 -14.3764 -26.6455 -58.5582 0.723829 20.9482 -28.8653 -0.515287 9.80222 13.9942 91.507 21.7764 61.5154 12.1091 52.9282 79.9705 20.6099 20.1479 1.29729 40.1908 1.81687 44.1794 -6.52167 0.374503 6.93928 -28.7489 8.96665 5.94834 2.01517e-008 1.56022e-007 -4.87131e-009 
-190.221 83.6304 371.777 61.697 27.5491 52.8728 -72.3236 6.47758 58.7466 68.3468 38.3512 -60.5588 -20.3729 -33.3909 0.995346 0.0462048 0.000533403 0.662642 -14.689 36.621 7.93166 -0.053636 0.0397501 0.039698 -31.5267 15.4535 15.9989 3.18055e-015 -1.59028e-015 -0 -57.3582 -42.3275 0.176086 -15.1745 -24.7409 -58.6142 -3.67271 21.7359 -22.908 -4.30998 12.3688 15.1337 92.2955 21.931 61.0936 13.1001 53.0921 78.5187 23.2685 19.7028 -3.07815 49.5036 -2.20599 41.1674 -11.6311 15.3381 8.29916 -14.475 4.62074 4.2522 2.01517e-008 1.56022e-007 -4.87131e-009 
-190.439 83.9362 371.868 61.7028 26.2318 52.6183 -71.5576 6.79888 57.3678 67.224 38.5108 -58.3264 -22.7714 -31.132 -0.0600006 0.0462048 0.000533403 0.662642 -12.0965 35.1214 6.50173 -0.150521 0.0942502 0.0374906 -28.8589 16.1191 15.0283 -3.18055e-015 -1.59028e-015 -0 -56.6167 -42.9466 4.4925 -15.6161 -23.2695 -58.7154 -1.51922 21.0649 -25.5198 -6.41105 14.1072 15.7851 90.2791 19.8122 59.3639 13.8658 52.5016 81.446 21.5073 19.7533 -0.302866 57.4211 -4.08089 37.3588 -20.0122 26.6449 17.8164 -15.0164 2.57216 3.05526 2.01517e-008 1.56022e-007 -4.87131e-009 
-190.842 84.4974 371.931 61.4473 25.1959 52.729 -70.6612 7.11551 55.7389 66.1469 38.5303 -56.3321 -24.9894 -28.7816 -0.915195 0.0462048 0.000533403 0.662642 -11.6346 34.2571 6.33663 -0.140441 0.0898502 0.0347007 -25.0772 16.2202 13.4907 -1.59028e-014 -3.97569e-015 1.59028e-015 -56.0639 -43.3326 6.91196 -15.7735 -22.0836 -59.0568 -15.9211 14.3083 -3.72726 -7.37663 14.8666 15.9957 86.9455 16.8444 56.6885 15.9948 51.4739 80.7448 21.2844 22.1347 1.74679 63.3132 -8.32138 33.3577 -30.3532 38.0615 31.4474 -9.25931 1.4771 2.82332 2.01517e-008 1.56022e-007 -4.87131e-009 
-191.235 85.2219 371.719 59.4159 25.1948 55.179 -69.5369 8.08624 52.1332 64.6683 38.4496 -53.5652 -24.7135 -26.0708 -1.0581 0.0462048 0.000533403 0.662642 -11.4742 32.6673 5.12519 -0.118497 0.0843202 0.0321468 -21.9381 16.4026 11.7447 3.18055e-015 7.95139e-016 -0 -55.6114 -43.6119 7.59035 -15.7951 -21.0891 -59.7971 -4.30773 18.0956 -17.1749 -6.66343 14.9135 15.7057 85.0502 15.5703 55.2132 17.4043 50.76 80.0616 18.8008 23.3859 6.21529 66.3523 -14.6714 31.4002 -46.5578 50.6012 49.1041 -4.28933 2.04171 3.11189 2.01517e-008 1.56022e-007 -4.87131e-009 
-191.525 85.5985 371.241 57.3756 25.124 57.6787 -68.583 8.84749 48.8119 63.6274 38.1839 -51.1273 -24.3288 -23.5714 -1.16519 0.0462048 0.000533403 0.662642 -12.5341 31.9013 4.86579 -0.0958983 0.0822076 0.0306476 -19.529 16.5941 10.1489 3.18055e-015 3.97569e-015 -1.59028e-015 -55.261 -43.8875 6.60071 -15.7636 -20.0958 -60.5934 -11.6294 16.6391 -8.94959 -4.43525 14.3333 14.9557 83.8723 15.0726 54.4042 18.2779 50.2885 79.5125 19.0465 23.8761 6.02343 65.4458 -19.1847 30.1272 -72.3728 61.0029 74.3752 -1.39695 3.66164 3.23904 2.01517e-008 1.56022e-007 -4.87131e-009 
-192.026 85.2784 370.862 55.2535 24.8954 60.2603 -67.5234 9.11935 45.4948 63.9593 37.9604 -49.8341 -24.4051 -21.5061 -1.19436 0.0462048 0.000533403 0.662642 -14.2265 31.9051 5.34449 -0.0733991 0.0815401 0.0310218 -17.8939 16.7402 8.96432 3.18055e-015 -4.77083e-015 -1.59028e-015 -54.7913 -44.2189 4.25125 -15.8905 -19.0485 -61.7993 -3.85866 18.1294 -17.8173 -1.14905 13.104 13.7695 83.1064 14.9363 53.9346 18.7581 50.0152 79.3353 17.7825 24.0886 7.92406 59.8319 -21.4323 28.4451 -96.1976 65.6364 98.4856 -0.056606 5.18479 3.22256 2.01517e-008 1.56022e-007 -4.87131e-009 
-192.909 84.5489 370.788 53.0909 24.4843 62.8456 -66.1345 8.9991 42.0868 65.3301 37.8109 -49.5555 -25.1374 -19.6134 -1.21529 0.0462048 0.000533403 0.662642 -16.1744 32.6271 6.49034 -0.0504791 0.0817901 0.0346412 -15.6939 16.2016 7.26211 6.62086e-032 1.19271e-015 -3.18055e-015 -54.4339 -44.7292 0.668757 -16.2611 -17.5793 -63.2583 -7.72371 17.9744 -12.9396 2.62101 11.203 12.1712 82.6543 15.0212 53.6402 18.9219 49.9315 79.5936 18.2725 24.0221 7.11586 49.9113 -21.3208 26.0368 -102.187 69.5569 107.621 0.482686 5.85324 3.23971 2.01517e-008 1.56022e-007 -4.8713e-009 
-194.273 84.0825 370.997 51.0559 24.0333 65.2688 -64.4304 8.60707 38.6563 66.8476 37.5914 -49.7252 -26.3443 -17.5005 -1.28586 0.0462048 0.000533403 0.662642 -17.4343 33.019 7.26589 0.0182398 -0.00585002 -0.00820044 -14.1479 16.0112 6.00408 1.10348e-032 3.97569e-016 -1.59028e-015 -53.4935 -45.3442 -1.8056 -18.3841 -11.8302 -68.2441 3.47522 17.8327 -33.5619 5.55062 9.86854 10.8096 82.5244 15.1353 53.5089 18.9465 49.9576 80.257 17.8191 23.7942 7.52215 39.9855 -18.3804 22.7396 -91.157 74.3273 103.6 -24.277 4.61635 1.716 2.01517e-008 1.56022e-007 -4.87131e-009 
-195.81 83.9949 371.266 49.2334 23.6201 67.4554 -62.9425 7.93395 35.5552 68.4418 37.2871 -50.0744 -26.7268 -15.4321 -1.16655 0.0462048 0.000533403 0.662642 -18.175 33.1586 7.74648 0.0212897 -0.00994003 -0.0101505 -13.0507 16.0226 5.0154 -0 -2.5842e-015 -0 -52.0594 -46.2754 -3.35293 -20.5088 -3.32905 -74.3768 4.26165 19.0759 -11.6572 7.78212 8.93306 9.51653 82.6048 15.1949 53.5013 18.9139 50.0531 81.242 18.4496 23.3631 6.24241 29.7066 -14.3217 21.1253 -56.6054 77.7289 76.6108 -47.9098 4.04031 1.94429 2.01517e-008 1.56022e-007 -4.87131e-009 
